<?xml version="1.0" encoding="UTF-8" standalone="no"?>
<!-- Created with Inkscape (http://www.inkscape.org/) -->

<svg
   width="64.169327mm"
   height="64.169327mm"
   viewBox="0 0 64.169327 64.169327"
   version="1.1"
   id="svg12619"
   sodipodi:docname="check.svg"
   inkscape:version="1.1 (c68e22c387, 2021-05-23)"
   xmlns:inkscape="http://www.inkscape.org/namespaces/inkscape"
   xmlns:sodipodi="http://sodipodi.sourceforge.net/DTD/sodipodi-0.dtd"
   xmlns="http://www.w3.org/2000/svg"
   xmlns:svg="http://www.w3.org/2000/svg">
  <sodipodi:namedview
     id="namedview12621"
     pagecolor="#ffffff"
     bordercolor="#666666"
     borderopacity="1.0"
     inkscape:pageshadow="2"
     inkscape:pageopacity="0.0"
     inkscape:pagecheckerboard="0"
     inkscape:document-units="mm"
     showgrid="false"
     inkscape:zoom="0.67081229"
     inkscape:cx="-330.94206"
     inkscape:cy="-240.00753"
     inkscape:window-width="1824"
     inkscape:window-height="1046"
     inkscape:window-x="-11"
     inkscape:window-y="-11"
     inkscape:window-maximized="1"
     inkscape:current-layer="layer1" />
  <defs
     id="defs12616" />
  <g
     inkscape:label="Layer 1"
     inkscape:groupmode="layer"
     id="layer1"
     transform="translate(-199.44123,-186.4253)">
    <path
       id="path3374-3-6-9-9-3-5"
       style="fill:#00d600;fill-opacity:1;stroke:#000000;stroke-width:2;stroke-miterlimit:4;stroke-dasharray:none;stroke-opacity:1"
       d="m 231.52564,187.4253 c -17.16759,1.3e-4 -31.08449,13.91735 -31.08441,31.08492 1e-4,17.16741 13.917,31.08425 31.08441,31.08441 17.1676,1.6e-4 31.08473,-13.91679 31.08492,-31.08441 0,-17.16779 -13.91722,-31.08508 -31.08492,-31.08492 z m 16.70389,16.93024 c 0.94935,0 1.90246,0.36208 2.63808,1.08881 1.47129,1.45346 1.49791,3.79576 0.0594,5.25187 l -21.57904,21.84363 c -1.36734,1.38412 -3.55076,1.45307 -5.02709,0.20826 -0.20563,-0.13701 -0.40068,-0.29668 -0.58134,-0.47956 l -12.01115,-12.15843 c -1.43849,-1.4561 -1.41238,-3.79841 0.0589,-5.25187 1.4713,-1.45346 3.81392,-1.45095 5.2524,0.005 l 9.63766,9.75548 18.93838,-19.16988 c 0.71924,-0.72806 1.66444,-1.0926 2.61379,-1.09347 z" />
  </g>
</svg>
